<svg width="512" height="512" viewBox="0 0 512 512" fill="none" xmlns="http://www.w3.org/2000/svg" role="img" aria-label="Logo SUMBER FAKTA">
  <defs><clipPath id="clip"><circle cx="256" cy="256" r="156"/></clipPath></defs>
  <circle cx="256" cy="256" r="170" stroke="#10203B" stroke-width="18" fill="none"/>
  <g clip-path="url(#clip)" stroke="#10203B" stroke-width="8" opacity="0.9">
    <ellipse cx="256" cy="256" rx="156" ry="156" fill="none"/>
    <ellipse cx="256" cy="256" rx="156" ry="74" fill="none"/>
    <ellipse cx="256" cy="256" rx="78"  ry="156" fill="none"/>
    <path d="M100 256h312M256 100v312"/>
  </g>
  <path d="M84 340C170 250 248 226 360 190" stroke="#1E88E5" stroke-width="26" stroke-linecap="round"/>
  <path d="M84 340C170 250 248 226 360 190" stroke="#2EC5F4" stroke-width="16" stroke-linecap="round"/>
  <path d="M84 340C170 250 248 226 360 190" stroke="#22C55E" stroke-width="10" stroke-linecap="round"/>
  <circle cx="330" cy="230" r="44" fill="white" stroke="#10203B" stroke-width="10"/>
  <path d="M346 226c0-9-8-16-22-16-11 0-20 5-22 12m44 16c0 9-8 16-22 16-11 0-20-5-22-12" stroke="#10203B" stroke-width="12" stroke-linecap="round" fill="none"/>
  <path d="M392 140c16-8 28-10 40-10" stroke="#22C55E" stroke-width="12" stroke-linecap="round"/>
  <path d="M382 118c24-12 44-16 62-16" stroke="#2EC5F4" stroke-width="12" stroke-linecap="round"/>
</svg>
