<?xml version="1.0" encoding="UTF-8"?>
<svg width="512" height="512" viewBox="0 0 512 512" xmlns="http://www.w3.org/2000/svg">
  <defs>
    <style>
      .ink{fill:#1F2937;}
      .white{fill:#FFFFFF;}
      .red-stroke{fill:none;stroke:#D0021B;stroke-width:16;stroke-linecap:round;stroke-linejoin:round;}
      .shadow{fill:none;stroke:#1F2937;stroke-width:10;opacity:.25;}
    </style>
  </defs>
  <!-- Shadow -->
  <ellipse class="shadow" cx="256" cy="468" rx="110" ry="18"/>
  <!-- Map pin -->
  <path class="ink" d="M256,64c-88.37,0-160,71.63-160,160c0,116.6,160,248,160,248s160-131.4,160-248C416,135.63,344.37,64,256,64z"/>
  <!-- Inner white circle -->
  <circle class="white" cx="256" cy="224" r="16"/>
  <!-- Internal radar arcs -->
  <path class="red-stroke" d="M256 170 A54 54 0 0 1 310 224"/>
  <path class="red-stroke" d="M256 148 A76 76 0 0 1 332 224"/>
  <path class="red-stroke" d="M256 126 A98 98 0 0 1 354 224"/>
  <!-- External broadcast waves (right) -->
  <path class="red-stroke" d="M396 160 A120 120 0 0 1 396 288"/>
  <path class="red-stroke" d="M420 144 A148 148 0 0 1 420 304"/>
  <!-- External broadcast waves (left) -->
  <path class="red-stroke" d="M116 288 A120 120 0 0 1 116 160"/>
  <path class="red-stroke" d="M92 304 A148 148 0 0 1 92 144"/>
</svg>
